<mxfile host="Electron" modified="2023-11-13T07:43:18.489Z" agent="Mozilla/5.0 (Windows NT 10.0; Win64; x64) AppleWebKit/537.36 (KHTML, like Gecko) draw.io/21.6.8 Chrome/114.0.5735.289 Electron/25.5.0 Safari/537.36" etag="bAIw0Z7Wmj2C2hWmwnE9" version="21.6.8" type="device">
  <diagram name="Page-1" id="oAATQPDENR3cd6AHVSy3">
    <mxGraphModel dx="1036" dy="606" grid="1" gridSize="10" guides="1" tooltips="1" connect="1" arrows="1" fold="1" page="1" pageScale="1" pageWidth="827" pageHeight="1169" math="0" shadow="0">
      <root>
        <mxCell id="0" />
        <mxCell id="1" parent="0" />
        <mxCell id="tG36ky43WNZntFPC5VDH-1" value="" style="swimlane;startSize=0;fontStyle=0" parent="1" vertex="1">
          <mxGeometry x="350" y="290" width="1100" height="290" as="geometry" />
        </mxCell>
        <mxCell id="tG36ky43WNZntFPC5VDH-2" value="&lt;font style=&quot;font-size: 18px;&quot;&gt;Code Execution&lt;/font&gt;" style="text;html=1;strokeColor=none;fillColor=none;align=center;verticalAlign=middle;whiteSpace=wrap;rounded=0;labelBorderColor=none;fontStyle=1" parent="tG36ky43WNZntFPC5VDH-1" vertex="1">
          <mxGeometry x="470" width="160" height="40" as="geometry" />
        </mxCell>
        <mxCell id="tG36ky43WNZntFPC5VDH-3" value="CodeExecutionRouter" style="swimlane;fontStyle=0;childLayout=stackLayout;horizontal=1;startSize=30;horizontalStack=0;resizeParent=1;resizeParentMax=0;resizeLast=0;collapsible=1;marginBottom=0;whiteSpace=wrap;html=1;" parent="tG36ky43WNZntFPC5VDH-1" vertex="1">
          <mxGeometry x="142" y="130" width="140" height="100" as="geometry" />
        </mxCell>
        <mxCell id="tG36ky43WNZntFPC5VDH-4" value="POST /compile" style="text;strokeColor=none;fillColor=none;align=left;verticalAlign=middle;spacingLeft=4;spacingRight=4;overflow=hidden;points=[[0,0.5],[1,0.5]];portConstraint=eastwest;rotatable=0;whiteSpace=wrap;html=1;" parent="tG36ky43WNZntFPC5VDH-3" vertex="1">
          <mxGeometry y="30" width="140" height="30" as="geometry" />
        </mxCell>
        <mxCell id="tG36ky43WNZntFPC5VDH-5" value="GET /status/:token" style="text;strokeColor=none;fillColor=none;align=left;verticalAlign=middle;spacingLeft=4;spacingRight=4;overflow=hidden;points=[[0,0.5],[1,0.5]];portConstraint=eastwest;rotatable=0;whiteSpace=wrap;html=1;" parent="tG36ky43WNZntFPC5VDH-3" vertex="1">
          <mxGeometry y="60" width="140" height="40" as="geometry" />
        </mxCell>
        <mxCell id="tG36ky43WNZntFPC5VDH-7" value="Routes" style="text;html=1;strokeColor=none;fillColor=none;align=center;verticalAlign=middle;whiteSpace=wrap;rounded=0;fontSize=20;" parent="tG36ky43WNZntFPC5VDH-1" vertex="1">
          <mxGeometry x="182" y="80" width="60" height="30" as="geometry" />
        </mxCell>
        <mxCell id="tG36ky43WNZntFPC5VDH-8" value="Controllers" style="text;html=1;strokeColor=none;fillColor=none;align=center;verticalAlign=middle;whiteSpace=wrap;rounded=0;fontSize=20;" parent="tG36ky43WNZntFPC5VDH-1" vertex="1">
          <mxGeometry x="485" y="80" width="60" height="30" as="geometry" />
        </mxCell>
        <mxCell id="tG36ky43WNZntFPC5VDH-10" value="CodeExecutionController" style="swimlane;fontStyle=0;childLayout=stackLayout;horizontal=1;startSize=30;horizontalStack=0;resizeParent=1;resizeParentMax=0;resizeLast=0;collapsible=1;marginBottom=0;whiteSpace=wrap;html=1;" parent="tG36ky43WNZntFPC5VDH-1" vertex="1">
          <mxGeometry x="430" y="130" width="190" height="100" as="geometry" />
        </mxCell>
        <mxCell id="tG36ky43WNZntFPC5VDH-11" value="batchSubmissionHandler" style="text;strokeColor=none;fillColor=none;align=left;verticalAlign=middle;spacingLeft=4;spacingRight=4;overflow=hidden;points=[[0,0.5],[1,0.5]];portConstraint=eastwest;rotatable=0;whiteSpace=wrap;html=1;" parent="tG36ky43WNZntFPC5VDH-10" vertex="1">
          <mxGeometry y="30" width="190" height="30" as="geometry" />
        </mxCell>
        <mxCell id="tG36ky43WNZntFPC5VDH-12" value="checkSubmissionStatusHandler" style="text;strokeColor=none;fillColor=none;align=left;verticalAlign=middle;spacingLeft=4;spacingRight=4;overflow=hidden;points=[[0,0.5],[1,0.5]];portConstraint=eastwest;rotatable=0;whiteSpace=wrap;html=1;" parent="tG36ky43WNZntFPC5VDH-10" vertex="1">
          <mxGeometry y="60" width="190" height="40" as="geometry" />
        </mxCell>
        <mxCell id="MT0nvZBacYmkkfLgKMIp-19" style="edgeStyle=orthogonalEdgeStyle;rounded=0;orthogonalLoop=1;jettySize=auto;html=1;exitX=0.16;exitY=0.55;exitDx=0;exitDy=0;exitPerimeter=0;" parent="tG36ky43WNZntFPC5VDH-1" source="tG36ky43WNZntFPC5VDH-65" target="tG36ky43WNZntFPC5VDH-11" edge="1">
          <mxGeometry relative="1" as="geometry">
            <Array as="points">
              <mxPoint x="719" y="180" />
              <mxPoint x="650" y="180" />
              <mxPoint x="650" y="190" />
            </Array>
          </mxGeometry>
        </mxCell>
        <mxCell id="MT0nvZBacYmkkfLgKMIp-21" value="Sends token" style="edgeLabel;html=1;align=center;verticalAlign=middle;resizable=0;points=[];fontSize=10;" parent="MT0nvZBacYmkkfLgKMIp-19" vertex="1" connectable="0">
          <mxGeometry x="-0.0875" y="3" relative="1" as="geometry">
            <mxPoint as="offset" />
          </mxGeometry>
        </mxCell>
        <mxCell id="MT0nvZBacYmkkfLgKMIp-24" style="edgeStyle=orthogonalEdgeStyle;rounded=0;orthogonalLoop=1;jettySize=auto;html=1;entryX=1.019;entryY=0.879;entryDx=0;entryDy=0;entryPerimeter=0;exitX=0.55;exitY=0.95;exitDx=0;exitDy=0;exitPerimeter=0;" parent="tG36ky43WNZntFPC5VDH-1" source="tG36ky43WNZntFPC5VDH-65" target="tG36ky43WNZntFPC5VDH-12" edge="1">
          <mxGeometry relative="1" as="geometry">
            <Array as="points">
              <mxPoint x="786" y="225" />
            </Array>
          </mxGeometry>
        </mxCell>
        <mxCell id="MT0nvZBacYmkkfLgKMIp-25" value="Sends compilation details" style="edgeLabel;html=1;align=center;verticalAlign=middle;resizable=0;points=[];fontSize=10;" parent="MT0nvZBacYmkkfLgKMIp-24" vertex="1" connectable="0">
          <mxGeometry x="0.388" relative="1" as="geometry">
            <mxPoint x="31" y="15" as="offset" />
          </mxGeometry>
        </mxCell>
        <mxCell id="tG36ky43WNZntFPC5VDH-65" value="RapidAPI" style="ellipse;shape=cloud;whiteSpace=wrap;html=1;" parent="tG36ky43WNZntFPC5VDH-1" vertex="1">
          <mxGeometry x="720" y="130" width="120" height="80" as="geometry" />
        </mxCell>
        <mxCell id="tG36ky43WNZntFPC5VDH-66" value="Judge0" style="ellipse;shape=cloud;whiteSpace=wrap;html=1;" parent="tG36ky43WNZntFPC5VDH-1" vertex="1">
          <mxGeometry x="850" y="130" width="120" height="80" as="geometry" />
        </mxCell>
        <mxCell id="tG36ky43WNZntFPC5VDH-68" value="Redis" style="shape=cylinder3;whiteSpace=wrap;html=1;boundedLbl=1;backgroundOutline=1;size=15;" parent="tG36ky43WNZntFPC5VDH-1" vertex="1">
          <mxGeometry x="1020" y="130" width="60" height="80" as="geometry" />
        </mxCell>
        <mxCell id="MT0nvZBacYmkkfLgKMIp-9" style="edgeStyle=orthogonalEdgeStyle;rounded=0;orthogonalLoop=1;jettySize=auto;html=1;entryX=0.007;entryY=0.211;entryDx=0;entryDy=0;entryPerimeter=0;exitX=1.017;exitY=0.11;exitDx=0;exitDy=0;exitPerimeter=0;" parent="tG36ky43WNZntFPC5VDH-1" source="tG36ky43WNZntFPC5VDH-4" target="tG36ky43WNZntFPC5VDH-11" edge="1">
          <mxGeometry relative="1" as="geometry">
            <Array as="points">
              <mxPoint x="284" y="166" />
              <mxPoint x="356" y="166" />
            </Array>
          </mxGeometry>
        </mxCell>
        <mxCell id="3PuoSlsILkaYSyU_75qJ-2" value="Sends submission batch" style="edgeLabel;html=1;align=center;verticalAlign=middle;resizable=0;points=[];" vertex="1" connectable="0" parent="MT0nvZBacYmkkfLgKMIp-9">
          <mxGeometry x="0.0438" y="1" relative="1" as="geometry">
            <mxPoint as="offset" />
          </mxGeometry>
        </mxCell>
        <mxCell id="MT0nvZBacYmkkfLgKMIp-16" value="" style="endArrow=none;dashed=1;html=1;rounded=0;exitX=0.901;exitY=0.552;exitDx=0;exitDy=0;entryX=0.16;entryY=0.55;entryDx=0;entryDy=0;entryPerimeter=0;exitPerimeter=0;" parent="tG36ky43WNZntFPC5VDH-1" source="tG36ky43WNZntFPC5VDH-65" target="tG36ky43WNZntFPC5VDH-66" edge="1">
          <mxGeometry width="50" height="50" relative="1" as="geometry">
            <mxPoint x="610" y="185" as="sourcePoint" />
            <mxPoint x="729" y="184" as="targetPoint" />
            <Array as="points" />
          </mxGeometry>
        </mxCell>
        <mxCell id="MT0nvZBacYmkkfLgKMIp-17" value="" style="endArrow=none;dashed=1;html=1;rounded=0;exitX=0.875;exitY=0.5;exitDx=0;exitDy=0;entryX=0;entryY=0.5;entryDx=0;entryDy=0;entryPerimeter=0;exitPerimeter=0;" parent="tG36ky43WNZntFPC5VDH-1" source="tG36ky43WNZntFPC5VDH-66" target="tG36ky43WNZntFPC5VDH-68" edge="1">
          <mxGeometry width="50" height="50" relative="1" as="geometry">
            <mxPoint x="815" y="180" as="sourcePoint" />
            <mxPoint x="879" y="184" as="targetPoint" />
          </mxGeometry>
        </mxCell>
        <mxCell id="MT0nvZBacYmkkfLgKMIp-18" style="edgeStyle=orthogonalEdgeStyle;rounded=0;orthogonalLoop=1;jettySize=auto;html=1;entryX=0.07;entryY=0.4;entryDx=0;entryDy=0;entryPerimeter=0;" parent="tG36ky43WNZntFPC5VDH-1" source="tG36ky43WNZntFPC5VDH-11" target="tG36ky43WNZntFPC5VDH-65" edge="1">
          <mxGeometry relative="1" as="geometry" />
        </mxCell>
        <mxCell id="MT0nvZBacYmkkfLgKMIp-20" value="Sends code for compilation" style="edgeLabel;html=1;align=center;verticalAlign=middle;resizable=0;points=[];fontSize=9;" parent="MT0nvZBacYmkkfLgKMIp-18" vertex="1" connectable="0">
          <mxGeometry x="0.2603" y="1" relative="1" as="geometry">
            <mxPoint x="-4" y="-11" as="offset" />
          </mxGeometry>
        </mxCell>
        <mxCell id="MT0nvZBacYmkkfLgKMIp-22" style="edgeStyle=orthogonalEdgeStyle;rounded=0;orthogonalLoop=1;jettySize=auto;html=1;entryX=0.55;entryY=0.95;entryDx=0;entryDy=0;entryPerimeter=0;" parent="tG36ky43WNZntFPC5VDH-1" source="tG36ky43WNZntFPC5VDH-12" target="tG36ky43WNZntFPC5VDH-65" edge="1">
          <mxGeometry relative="1" as="geometry" />
        </mxCell>
        <mxCell id="MT0nvZBacYmkkfLgKMIp-23" value="Returns token to check status" style="edgeLabel;html=1;align=center;verticalAlign=middle;resizable=0;points=[];fontSize=10;" parent="MT0nvZBacYmkkfLgKMIp-22" vertex="1" connectable="0">
          <mxGeometry x="-0.1098" y="1" relative="1" as="geometry">
            <mxPoint y="5" as="offset" />
          </mxGeometry>
        </mxCell>
        <mxCell id="MT0nvZBacYmkkfLgKMIp-26" value="Code Compilation Environment" style="text;html=1;strokeColor=none;fillColor=none;align=center;verticalAlign=middle;whiteSpace=wrap;rounded=0;" parent="tG36ky43WNZntFPC5VDH-1" vertex="1">
          <mxGeometry x="855" y="100" width="110" height="30" as="geometry" />
        </mxCell>
        <mxCell id="MT0nvZBacYmkkfLgKMIp-27" value="" style="shape=image;imageAspect=0;aspect=fixed;verticalLabelPosition=bottom;verticalAlign=top;image=https://rapidapi-prod-apis.s3.amazonaws.com/b7e8a560-1620-41f3-b94b-69407a417ffa.png;" parent="tG36ky43WNZntFPC5VDH-1" vertex="1">
          <mxGeometry x="899.38" y="180" width="21.25" height="21.25" as="geometry" />
        </mxCell>
        <mxCell id="MT0nvZBacYmkkfLgKMIp-29" value="" style="shape=image;imageAspect=0;aspect=fixed;verticalLabelPosition=bottom;verticalAlign=top;image=https://imgix.setapp.com/app/94/7993/icon-1683113606-64524686d3f0b.png?auto=format%2Ccompress&amp;ixlib=php-3.3.1&amp;q=75&amp;w=320;" parent="tG36ky43WNZntFPC5VDH-1" vertex="1">
          <mxGeometry x="770" y="180" width="20" height="20" as="geometry" />
        </mxCell>
        <mxCell id="MT0nvZBacYmkkfLgKMIp-30" value="" style="shape=image;imageAspect=0;aspect=fixed;verticalLabelPosition=bottom;verticalAlign=top;image=https://cdn4.iconfinder.com/data/icons/redis-2/1451/Untitled-2-512.png;" parent="tG36ky43WNZntFPC5VDH-1" vertex="1">
          <mxGeometry x="1039.5" y="189" width="21" height="21" as="geometry" />
        </mxCell>
        <mxCell id="MT0nvZBacYmkkfLgKMIp-6" style="edgeStyle=orthogonalEdgeStyle;rounded=0;orthogonalLoop=1;jettySize=auto;html=1;entryX=0;entryY=0.5;entryDx=0;entryDy=0;" parent="tG36ky43WNZntFPC5VDH-1" target="tG36ky43WNZntFPC5VDH-5" edge="1">
          <mxGeometry relative="1" as="geometry">
            <mxPoint x="-60" y="201.24761904761903" as="sourcePoint" />
            <mxPoint x="142" y="231.20000000000005" as="targetPoint" />
            <Array as="points">
              <mxPoint x="-60" y="210" />
            </Array>
          </mxGeometry>
        </mxCell>
        <mxCell id="MT0nvZBacYmkkfLgKMIp-33" value="Sends token" style="edgeLabel;html=1;align=center;verticalAlign=middle;resizable=0;points=[];" parent="MT0nvZBacYmkkfLgKMIp-6" vertex="1" connectable="0">
          <mxGeometry x="-0.5659" relative="1" as="geometry">
            <mxPoint x="53" as="offset" />
          </mxGeometry>
        </mxCell>
        <mxCell id="MT0nvZBacYmkkfLgKMIp-34" style="edgeStyle=orthogonalEdgeStyle;rounded=0;orthogonalLoop=1;jettySize=auto;html=1;entryX=1;entryY=0.5;entryDx=0;entryDy=0;" parent="tG36ky43WNZntFPC5VDH-1" source="tG36ky43WNZntFPC5VDH-11" target="tG36ky43WNZntFPC5VDH-4" edge="1">
          <mxGeometry relative="1" as="geometry" />
        </mxCell>
        <mxCell id="MT0nvZBacYmkkfLgKMIp-5" style="edgeStyle=orthogonalEdgeStyle;rounded=0;orthogonalLoop=1;jettySize=auto;html=1;entryX=0;entryY=0.5;entryDx=0;entryDy=0;" parent="1" source="tG36ky43WNZntFPC5VDH-50" target="tG36ky43WNZntFPC5VDH-4" edge="1">
          <mxGeometry relative="1" as="geometry">
            <Array as="points">
              <mxPoint x="340" y="465" />
              <mxPoint x="340" y="465" />
            </Array>
          </mxGeometry>
        </mxCell>
        <mxCell id="MT0nvZBacYmkkfLgKMIp-32" value="Submits code" style="edgeLabel;html=1;align=center;verticalAlign=middle;resizable=0;points=[];" parent="MT0nvZBacYmkkfLgKMIp-5" vertex="1" connectable="0">
          <mxGeometry x="-0.5221" y="-2" relative="1" as="geometry">
            <mxPoint x="42" y="-2" as="offset" />
          </mxGeometry>
        </mxCell>
        <mxCell id="tG36ky43WNZntFPC5VDH-50" value="Frontend" style="rounded=1;whiteSpace=wrap;html=1;" parent="1" vertex="1">
          <mxGeometry x="160" y="440" width="120" height="60" as="geometry" />
        </mxCell>
        <mxCell id="MT0nvZBacYmkkfLgKMIp-35" style="edgeStyle=orthogonalEdgeStyle;rounded=0;orthogonalLoop=1;jettySize=auto;html=1;entryX=1.013;entryY=0.147;entryDx=0;entryDy=0;entryPerimeter=0;" parent="1" source="tG36ky43WNZntFPC5VDH-4" target="tG36ky43WNZntFPC5VDH-50" edge="1">
          <mxGeometry relative="1" as="geometry">
            <Array as="points">
              <mxPoint x="290" y="450" />
              <mxPoint x="290" y="449" />
            </Array>
          </mxGeometry>
        </mxCell>
        <mxCell id="MT0nvZBacYmkkfLgKMIp-36" value="sends token" style="edgeLabel;html=1;align=center;verticalAlign=middle;resizable=0;points=[];" parent="MT0nvZBacYmkkfLgKMIp-35" vertex="1" connectable="0">
          <mxGeometry x="0.0476" y="-2" relative="1" as="geometry">
            <mxPoint x="-1" y="2" as="offset" />
          </mxGeometry>
        </mxCell>
      </root>
    </mxGraphModel>
  </diagram>
</mxfile>
